<svg id="visual" viewBox="0 0 3840 2160" width="3840" height="2160" xmlns="http://www.w3.org/2000/svg" xmlns:xlink="http://www.w3.org/1999/xlink" version="1.1"><path d="M0 66L58.2 69.5C116.3 73 232.7 80 349 101.5C465.3 123 581.7 159 698 162.7C814.3 166.3 930.7 137.7 1047 141.3C1163.3 145 1279.7 181 1396 188.2C1512.3 195.3 1628.7 173.7 1745.2 170C1861.7 166.3 1978.3 180.7 2094.8 177.2C2211.3 173.7 2327.7 152.3 2444 134.3C2560.3 116.3 2676.7 101.7 2793 108.8C2909.3 116 3025.7 145 3142 152.3C3258.3 159.7 3374.7 145.3 3491 138.2C3607.3 131 3723.7 131 3781.8 131L3840 131L3840 0L3781.8 0C3723.7 0 3607.3 0 3491 0C3374.7 0 3258.3 0 3142 0C3025.7 0 2909.3 0 2793 0C2676.7 0 2560.3 0 2444 0C2327.7 0 2211.3 0 2094.8 0C1978.3 0 1861.7 0 1745.2 0C1628.7 0 1512.3 0 1396 0C1279.7 0 1163.3 0 1047 0C930.7 0 814.3 0 698 0C581.7 0 465.3 0 349 0C232.7 0 116.3 0 58.2 0L0 0Z" fill="#eeeeee"></path><path d="M0 303L58.2 288.7C116.3 274.3 232.7 245.7 349 263.7C465.3 281.7 581.7 346.3 698 353.5C814.3 360.7 930.7 310.3 1047 306.8C1163.3 303.3 1279.7 346.7 1396 371.8C1512.3 397 1628.7 404 1745.2 386C1861.7 368 1978.3 325 2094.8 307C2211.3 289 2327.7 296 2444 281.5C2560.3 267 2676.7 231 2793 241.8C2909.3 252.7 3025.7 310.3 3142 342.8C3258.3 375.3 3374.7 382.7 3491 375.5C3607.3 368.3 3723.7 346.7 3781.8 335.8L3840 325L3840 129L3781.8 129C3723.7 129 3607.3 129 3491 136.2C3374.7 143.3 3258.3 157.7 3142 150.3C3025.7 143 2909.3 114 2793 106.8C2676.7 99.7 2560.3 114.3 2444 132.3C2327.7 150.3 2211.3 171.7 2094.8 175.2C1978.3 178.7 1861.7 164.3 1745.2 168C1628.7 171.7 1512.3 193.3 1396 186.2C1279.7 179 1163.3 143 1047 139.3C930.7 135.7 814.3 164.3 698 160.7C581.7 157 465.3 121 349 99.5C232.7 78 116.3 71 58.2 67.5L0 64Z" fill="#f2f2f2"></path><path d="M0 541L58.2 530.2C116.3 519.3 232.7 497.7 349 522.8C465.3 548 581.7 620 698 616.5C814.3 613 930.7 534 1047 555.7C1163.3 577.3 1279.7 699.7 1396 753.7C1512.3 807.7 1628.7 793.3 1745.2 764.5C1861.7 735.7 1978.3 692.3 2094.8 649C2211.3 605.7 2327.7 562.3 2444 544.3C2560.3 526.3 2676.7 533.7 2793 533.7C2909.3 533.7 3025.7 526.3 3142 573.2C3258.3 620 3374.7 721 3491 742.7C3607.3 764.3 3723.7 706.7 3781.8 677.8L3840 649L3840 323L3781.8 333.8C3723.7 344.7 3607.3 366.3 3491 373.5C3374.7 380.7 3258.3 373.3 3142 340.8C3025.7 308.3 2909.3 250.7 2793 239.8C2676.7 229 2560.3 265 2444 279.5C2327.7 294 2211.3 287 2094.8 305C1978.3 323 1861.7 366 1745.2 384C1628.7 402 1512.3 395 1396 369.8C1279.7 344.7 1163.3 301.3 1047 304.8C930.7 308.3 814.3 358.7 698 351.5C581.7 344.3 465.3 279.7 349 261.7C232.7 243.7 116.3 272.3 58.2 286.7L0 301Z" fill="#f6f6f6"></path><path d="M0 1081L58.2 1099C116.3 1117 232.7 1153 349 1138.7C465.3 1124.3 581.7 1059.7 698 1088.5C814.3 1117.3 930.7 1239.7 1047 1279.2C1163.3 1318.7 1279.7 1275.3 1396 1257.3C1512.3 1239.3 1628.7 1246.7 1745.2 1185.5C1861.7 1124.3 1978.3 994.7 2094.8 929.8C2211.3 865 2327.7 865 2444 847C2560.3 829 2676.7 793 2793 811C2909.3 829 3025.7 901 3142 1016.2C3258.3 1131.3 3374.7 1289.7 3491 1275.3C3607.3 1261 3723.7 1074 3781.8 980.5L3840 887L3840 647L3781.8 675.8C3723.7 704.7 3607.3 762.3 3491 740.7C3374.7 719 3258.3 618 3142 571.2C3025.7 524.3 2909.3 531.7 2793 531.7C2676.7 531.7 2560.3 524.3 2444 542.3C2327.7 560.3 2211.3 603.7 2094.8 647C1978.3 690.3 1861.7 733.7 1745.2 762.5C1628.7 791.3 1512.3 805.7 1396 751.7C1279.7 697.7 1163.3 575.3 1047 553.7C930.7 532 814.3 611 698 614.5C581.7 618 465.3 546 349 520.8C232.7 495.7 116.3 517.3 58.2 528.2L0 539Z" fill="#fbfbfb"></path><path d="M0 1340L58.2 1358C116.3 1376 232.7 1412 349 1390.5C465.3 1369 581.7 1290 698 1300.8C814.3 1311.7 930.7 1412.3 1047 1444.7C1163.3 1477 1279.7 1441 1396 1423C1512.3 1405 1628.7 1405 1745.2 1369C1861.7 1333 1978.3 1261 2094.8 1192.7C2211.3 1124.3 2327.7 1059.7 2444 1027.3C2560.3 995 2676.7 995 2793 1034.5C2909.3 1074 3025.7 1153 3142 1250.2C3258.3 1347.3 3374.7 1462.7 3491 1459.2C3607.3 1455.7 3723.7 1333.3 3781.8 1272.2L3840 1211L3840 885L3781.8 978.5C3723.7 1072 3607.3 1259 3491 1273.3C3374.7 1287.7 3258.3 1129.3 3142 1014.2C3025.7 899 2909.3 827 2793 809C2676.7 791 2560.3 827 2444 845C2327.7 863 2211.3 863 2094.8 927.8C1978.3 992.7 1861.7 1122.3 1745.2 1183.5C1628.7 1244.7 1512.3 1237.3 1396 1255.3C1279.7 1273.3 1163.3 1316.7 1047 1277.2C930.7 1237.7 814.3 1115.3 698 1086.5C581.7 1057.7 465.3 1122.3 349 1136.7C232.7 1151 116.3 1115 58.2 1097L0 1079Z" fill="#ffffff"></path><path d="M0 1448L58.2 1476.8C116.3 1505.7 232.7 1563.3 349 1545.3C465.3 1527.3 581.7 1433.7 698 1433.7C814.3 1433.7 930.7 1527.3 1047 1549C1163.3 1570.7 1279.7 1520.3 1396 1502.3C1512.3 1484.3 1628.7 1498.7 1745.2 1473.5C1861.7 1448.3 1978.3 1383.7 2094.8 1326C2211.3 1268.3 2327.7 1217.7 2444 1178C2560.3 1138.3 2676.7 1109.7 2793 1135C2909.3 1160.3 3025.7 1239.7 3142 1333.3C3258.3 1427 3374.7 1535 3491 1527.7C3607.3 1520.3 3723.7 1397.7 3781.8 1336.3L3840 1275L3840 1209L3781.8 1270.2C3723.7 1331.3 3607.3 1453.7 3491 1457.2C3374.7 1460.7 3258.3 1345.3 3142 1248.2C3025.7 1151 2909.3 1072 2793 1032.5C2676.7 993 2560.3 993 2444 1025.3C2327.7 1057.7 2211.3 1122.3 2094.8 1190.7C1978.3 1259 1861.7 1331 1745.2 1367C1628.7 1403 1512.3 1403 1396 1421C1279.7 1439 1163.3 1475 1047 1442.7C930.7 1410.3 814.3 1309.7 698 1298.8C581.7 1288 465.3 1367 349 1388.5C232.7 1410 116.3 1374 58.2 1356L0 1338Z" fill="#ffffff"></path><path d="M0 1664L58.2 1671.2C116.3 1678.3 232.7 1692.7 349 1671.2C465.3 1649.7 581.7 1592.3 698 1596C814.3 1599.7 930.7 1664.3 1047 1664.3C1163.3 1664.3 1279.7 1599.7 1396 1592.5C1512.3 1585.3 1628.7 1635.7 1745.2 1621.2C1861.7 1606.7 1978.3 1527.3 2094.8 1469.7C2211.3 1412 2327.7 1376 2444 1350.8C2560.3 1325.7 2676.7 1311.3 2793 1322.2C2909.3 1333 3025.7 1369 3142 1441C3258.3 1513 3374.7 1621 3491 1613.8C3607.3 1606.7 3723.7 1484.3 3781.8 1423.2L3840 1362L3840 1273L3781.8 1334.3C3723.7 1395.7 3607.3 1518.3 3491 1525.7C3374.7 1533 3258.3 1425 3142 1331.3C3025.7 1237.7 2909.3 1158.3 2793 1133C2676.7 1107.7 2560.3 1136.3 2444 1176C2327.7 1215.7 2211.3 1266.3 2094.8 1324C1978.3 1381.7 1861.7 1446.3 1745.2 1471.5C1628.7 1496.7 1512.3 1482.3 1396 1500.3C1279.7 1518.3 1163.3 1568.7 1047 1547C930.7 1525.3 814.3 1431.7 698 1431.7C581.7 1431.7 465.3 1525.3 349 1543.3C232.7 1561.3 116.3 1503.7 58.2 1474.8L0 1446Z" fill="#ffffff"></path><path d="M0 1751L58.2 1772.5C116.3 1794 232.7 1837 349 1822.5C465.3 1808 581.7 1736 698 1721.7C814.3 1707.3 930.7 1750.7 1047 1757.8C1163.3 1765 1279.7 1736 1396 1743.2C1512.3 1750.3 1628.7 1793.7 1745.2 1779.3C1861.7 1765 1978.3 1693 2094.8 1621C2211.3 1549 2327.7 1477 2444 1455.3C2560.3 1433.7 2676.7 1462.3 2793 1484C2909.3 1505.7 3025.7 1520.3 3142 1588.8C3258.3 1657.3 3374.7 1779.7 3491 1776C3607.3 1772.3 3723.7 1642.7 3781.8 1577.8L3840 1513L3840 1360L3781.8 1421.2C3723.7 1482.3 3607.3 1604.7 3491 1611.8C3374.7 1619 3258.3 1511 3142 1439C3025.7 1367 2909.3 1331 2793 1320.2C2676.7 1309.3 2560.3 1323.7 2444 1348.8C2327.7 1374 2211.3 1410 2094.8 1467.7C1978.3 1525.3 1861.7 1604.7 1745.2 1619.2C1628.7 1633.7 1512.3 1583.3 1396 1590.5C1279.7 1597.7 1163.3 1662.3 1047 1662.3C930.7 1662.3 814.3 1597.7 698 1594C581.7 1590.3 465.3 1647.7 349 1669.2C232.7 1690.7 116.3 1676.3 58.2 1669.2L0 1662Z" fill="#ffffff"></path><path d="M0 2161L58.2 2161C116.3 2161 232.7 2161 349 2161C465.3 2161 581.7 2161 698 2161C814.3 2161 930.7 2161 1047 2161C1163.3 2161 1279.7 2161 1396 2161C1512.3 2161 1628.7 2161 1745.2 2161C1861.7 2161 1978.3 2161 2094.8 2161C2211.3 2161 2327.7 2161 2444 2161C2560.3 2161 2676.7 2161 2793 2161C2909.3 2161 3025.7 2161 3142 2161C3258.3 2161 3374.7 2161 3491 2161C3607.3 2161 3723.7 2161 3781.8 2161L3840 2161L3840 1511L3781.8 1575.8C3723.7 1640.7 3607.3 1770.3 3491 1774C3374.7 1777.7 3258.3 1655.3 3142 1586.8C3025.7 1518.3 2909.3 1503.7 2793 1482C2676.7 1460.3 2560.3 1431.7 2444 1453.3C2327.7 1475 2211.3 1547 2094.8 1619C1978.3 1691 1861.7 1763 1745.2 1777.3C1628.7 1791.7 1512.3 1748.3 1396 1741.2C1279.7 1734 1163.3 1763 1047 1755.8C930.7 1748.7 814.3 1705.3 698 1719.7C581.7 1734 465.3 1806 349 1820.5C232.7 1835 116.3 1792 58.2 1770.5L0 1749Z" fill="#ffffff"></path></svg>