<svg xmlns="http://www.w3.org/2000/svg" xmlns:xlink="http://www.w3.org/1999/xlink" width="963" zoomAndPan="magnify" viewBox="0 0 722.25 64.499998" height="86" preserveAspectRatio="xMidYMid meet" version="1.0"><defs><clipPath id="875dc5f54c"><path d="M 2.40625 35.828125 L 718.542969 35.828125 L 718.542969 63.648438 L 2.40625 63.648438 Z M 2.40625 35.828125 " clip-rule="nonzero"/></clipPath><clipPath id="bcb87402a2"><path d="M 16.316406 35.828125 L 704.566406 35.828125 C 712.25 35.828125 718.476562 42.054688 718.476562 49.738281 C 718.476562 57.417969 712.25 63.648438 704.566406 63.648438 L 16.316406 63.648438 C 8.632812 63.648438 2.40625 57.417969 2.40625 49.738281 C 2.40625 42.054688 8.632812 35.828125 16.316406 35.828125 Z M 16.316406 35.828125 " clip-rule="nonzero"/></clipPath><clipPath id="ab183b935c"><path d="M 333.003906 0 L 387.878906 0 L 387.878906 54.875 L 333.003906 54.875 Z M 333.003906 0 " clip-rule="nonzero"/></clipPath><clipPath id="8d847ff267"><path d="M 360.441406 0 C 345.289062 0 333.003906 12.285156 333.003906 27.4375 C 333.003906 42.589844 345.289062 54.875 360.441406 54.875 C 375.59375 54.875 387.878906 42.589844 387.878906 27.4375 C 387.878906 12.285156 375.59375 0 360.441406 0 Z M 360.441406 0 " clip-rule="nonzero"/></clipPath><clipPath id="19b486ab5e"><path d="M 333.003906 0 L 387.867188 0 L 387.867188 54.863281 L 333.003906 54.863281 Z M 333.003906 0 " clip-rule="nonzero"/></clipPath><clipPath id="8cb1d5efdc"><path d="M 360.4375 0 C 345.285156 0 333.003906 12.28125 333.003906 27.433594 C 333.003906 42.582031 345.285156 54.863281 360.4375 54.863281 C 375.585938 54.863281 387.867188 42.582031 387.867188 27.433594 C 387.867188 12.28125 375.585938 0 360.4375 0 Z M 360.4375 0 " clip-rule="nonzero"/></clipPath><clipPath id="9aa501916e"><path d="M 347.835938 14.832031 L 373.046875 14.832031 L 373.046875 40.042969 L 347.835938 40.042969 Z M 347.835938 14.832031 " clip-rule="nonzero"/></clipPath><clipPath id="ec1024cef3"><path d="M 360.441406 14.832031 C 353.480469 14.832031 347.835938 20.476562 347.835938 27.4375 C 347.835938 34.398438 353.480469 40.042969 360.441406 40.042969 C 367.402344 40.042969 373.046875 34.398438 373.046875 27.4375 C 373.046875 20.476562 367.402344 14.832031 360.441406 14.832031 Z M 360.441406 14.832031 " clip-rule="nonzero"/></clipPath></defs><g clip-path="url(#875dc5f54c)"><g clip-path="url(#bcb87402a2)"><path fill="#f3274c" d="M 2.40625 35.828125 L 718.433594 35.828125 L 718.433594 63.648438 L 2.40625 63.648438 Z M 2.40625 35.828125 " fill-opacity="1" fill-rule="nonzero"/></g></g><g clip-path="url(#ab183b935c)"><g clip-path="url(#8d847ff267)"><path fill="#ffffff" d="M 333.003906 0 L 387.878906 0 L 387.878906 54.875 L 333.003906 54.875 Z M 333.003906 0 " fill-opacity="1" fill-rule="nonzero"/></g></g><g clip-path="url(#19b486ab5e)"><g clip-path="url(#8cb1d5efdc)"><path stroke-linecap="butt" transform="matrix(0.744231, 0, 0, 0.744231, 333.003762, -0.00000000000011105)" fill="none" stroke-linejoin="miter" d="M 36.861873 0.000000000000149214 C 16.502133 0.000000000000149214 0.000193971 16.501939 0.000193971 36.861679 C 0.000193971 57.21617 16.502133 73.718109 36.861873 73.718109 C 57.216364 73.718109 73.718303 57.21617 73.718303 36.861679 C 73.718303 16.501939 57.216364 0.000000000000149214 36.861873 0.000000000000149214 Z M 36.861873 0.000000000000149214 " stroke="#f3274c" stroke-width="8" stroke-opacity="1" stroke-miterlimit="4"/></g></g><g clip-path="url(#9aa501916e)"><g clip-path="url(#ec1024cef3)"><path fill="#f3274c" d="M 347.835938 14.832031 L 373.046875 14.832031 L 373.046875 40.042969 L 347.835938 40.042969 Z M 347.835938 14.832031 " fill-opacity="1" fill-rule="nonzero"/></g></g></svg>