<svg xmlns="http://www.w3.org/2000/svg" viewBox="0 0 500 500"><g id="freepik--Shadow--inject-12"><path d="M463.449,443.052c0,3.387-93.516,6.132-208.875,6.132s-208.875-2.746-208.875-6.132,93.516-6.132,208.875-6.132,208.875,2.745,208.875,6.132Z" style="fill:#f5f5f5;"></path></g><g id="freepik--Lines--inject-12"><g><path d="M92.701,328.604H49.705c-.207,0-.375-.168-.375-.375s.168-.375,.375-.375h42.996c.207,0,.375,.168,.375,.375s-.168,.375-.375,.375Z"></path><path d="M82.315,334.188H39.319c-.207,0-.375-.168-.375-.375s.168-.375,.375-.375h42.996c.207,0,.375,.168,.375,.375s-.168,.375-.375,.375Z"></path></g><g><path d="M210.908,180.606h-29.598c-.207,0-.375-.168-.375-.375s.168-.375,.375-.375h29.598c.207,0,.375,.168,.375,.375s-.168,.375-.375,.375Z"></path><path d="M203.758,184.227h-29.597c-.207,0-.375-.168-.375-.375s.168-.375,.375-.375h29.597c.207,0,.375,.168,.375,.375s-.168,.375-.375,.375Z"></path></g></g><g id="freepik--Character--inject-12"><g><g><g><path d="M75.46,159.886s-14.324,17.745-22.164,19.516c0,0,7.526,1.662,19.727,0,12.2-1.662,11.589-2.914,11.589-2.914l-9.152-16.601Z" style="fill:#F99727;"></path><path d="M98.831,211.386c-4.165-14.645-9.918-28.831-17.16-42.226-2.091-3.867-4.308-7.665-6.638-11.393-.51-.817-1.809-.065-1.295,.757,10.338,16.546,18.309,34.495,23.647,53.261,.264,.927,1.711,.533,1.446-.399h0Z" style="fill:#263238;"></path></g><rect x="79.058" y="210.73" width="101.4" height="85.646" rx="7.839" ry="7.839" style="fill:#F99727;"></rect><g><path d="M118.999,278.754c0,3.009-2.303,4.902-5.924,4.902h-1.875v3.194h-4.383v-12.999h6.258c3.621,0,5.924,1.895,5.924,4.902Zm-4.42,0c0-.947-.575-1.522-1.782-1.522h-1.597v3.045h1.597c1.207,0,1.782-.575,1.782-1.523Z" style="fill:#fff;"></path><path d="M120.054,273.74c0-1.207,.984-2.136,2.526-2.136s2.525,.855,2.525,2.061c0,1.281-.984,2.21-2.525,2.21s-2.526-.929-2.526-2.136Zm.428,2.952h4.196v10.158h-4.196v-10.158Z" style="fill:#fff;"></path><path d="M135.856,283.786v3.065h-9.694v-2.414l4.197-4.68h-4.048v-3.064h9.34v2.414l-4.196,4.68h4.401Z" style="fill:#fff;"></path><path d="M146.438,283.786v3.065h-9.694v-2.414l4.197-4.68h-4.048v-3.064h9.34v2.414l-4.196,4.68h4.401Z" style="fill:#fff;"></path><path d="M157.744,281.391v5.46h-3.899v-1.337c-.482,1.022-1.448,1.522-2.878,1.522-2.489,0-3.77-1.411-3.77-3.157,0-1.968,1.486-3.064,4.643-3.064h1.69c-.13-.78-.725-1.188-1.913-1.188-.91,0-1.932,.297-2.6,.799l-1.337-2.768c1.188-.742,2.989-1.151,4.568-1.151,3.491,0,5.496,1.505,5.496,4.884Zm-4.196,2.154v-.705h-1.04c-.892,0-1.281,.297-1.281,.854,0,.465,.371,.817,1.003,.817,.575,0,1.096-.297,1.318-.966Z" style="fill:#fff;"></path></g><g><path d="M132.253,246.684h23.495c0,12.889-10.606,23.495-23.495,23.495s-23.495-10.606-23.495-23.495,10.606-23.495,23.495-23.495c6.413,0,12.554,2.626,16.985,7.262l-16.985,16.233Z" style="fill:#fff; opacity:.3;"></path><path d="M132.253,246.684h19.42c0,10.654-8.767,19.42-19.42,19.42s-19.42-8.767-19.42-19.42,8.767-19.42,19.42-19.42c5.301,0,10.377,2.17,14.039,6.002l-14.039,13.418Z" style="fill:#fff; opacity:.3;"></path><circle cx="121.083" cy="243.411" r="2.284" style="fill:#fff;"></circle><circle cx="142.644" cy="251.616" r="2.284" style="fill:#fff;"></circle><path d="M133.788,236.478c0,1.777-1.44,3.217-3.217,3.217s-3.217-1.44-3.217-3.217,1.44-3.217,3.217-3.217,3.217,1.44,3.217,3.217Z" style="fill:#fff;"></path><circle cx="131.753" cy="254.833" r="3.217" style="fill:#fff;"></circle><path d="M131.753,244.834c0,1.135-.92,2.055-2.055,2.055s-2.055-.92-2.055-2.055,.92-2.055,2.055-2.055,2.055,.92,2.055,2.055Z" style="fill:#fff;"></path><path d="M123.5,253.047c0,.827-.67,1.497-1.497,1.497s-1.497-.67-1.497-1.497,.67-1.497,1.497-1.497,1.497,.67,1.497,1.497Z" style="fill:#fff;"></path></g><path d="M79.707,219.305h100.101c.965,0,.967-1.5,0-1.5H79.707c-.965,0-.967,1.5,0,1.5h0Z" style="opacity:.3;"></path></g><g><g><path d="M183.145,296.376H92.296c-2.169,0-3.928,1.759-3.928,3.928h0c0,2.157,1.737,3.91,3.893,3.928,8.996,.077,30.501,.233,31.038-.035,.68-.34,12.985,17.834,15.046,17.011l5.016,16.797,51.686-19.052-11.901-22.577Z" style="fill:#263238;"></path><path d="M183.145,296.376H92.296c-2.169,0-3.928,1.759-3.928,3.928h0c0,2.157,1.737,3.91,3.893,3.928,8.996,.077,30.501,.233,31.038-.035,.68-.34,12.985,17.834,15.046,17.011l5.016,16.797,51.686-19.052-11.901-22.577Z" style="opacity:.3;"></path></g><path d="M182.457,303.018c-.26-.781-6.77-21.613,11.197-20.571,17.967,1.042,82.545,25.136,83.326,30.405,.781,5.269-15.884,13.341-15.884,13.341,0,0-13.02,23.175-3.645,35.413,9.374,12.239,20.571,14.322,33.851,14.582,13.28,.26,37.236-1.823,36.195-28.383-1.041-26.56-.781-46.09-6.249-58.849-5.468-12.759-4.166-28.123-4.166-28.904s15.103-6.5,15.103-6.5l41.663,61.327-17.967,47.507s-26.039,31.508-26.821,32.028c-.781,.521-58.589,12.759-59.37,12.759s-51.037-4.687-51.298-5.729c-.26-1.042-10.416-22.915-10.416-22.915l-25.519-75.514Z" style="fill:#263238;"></path><path d="M409.387,310.649s6.054,3.113,10.394,11.451c4.341,8.338,1.599,14.621,1.599,14.621l-11.994-26.072Z" style="fill:#F99727;"></path><path d="M409.387,310.649s6.054,3.113,10.394,11.451c4.341,8.338,1.599,14.621,1.599,14.621l-11.994-26.072Z" style="fill:#fff; opacity:.5;"></path><path d="M218.955,409.63v3.281h-6.837v4.371s40.212,1.909,41.853,0c1.641-1.909,5.197-10.47,5.197-10.47l-40.214,2.817Z" style="fill:#263238;"></path><g><ellipse cx="150.958" cy="392.251" rx="50.917" ry="50.801" style="fill:#263238;"></ellipse><g style="opacity:.3;"><rect x="148.451" y="364.231" width="5.002" height="20.94" rx="2.487" ry="2.487" style="fill:#fff;"></rect></g><g style="opacity:.3;"><path d="M153.453,401.811v15.966c0,1.374-1.116,2.487-2.493,2.487h-.016c-1.377,0-2.493-1.113-2.493-2.487v-15.966c0-1.374,1.116-2.487,2.493-2.487h.016c1.377,0,2.493,1.114,2.493,2.487Z" style="fill:#fff;"></path></g><g style="opacity:.3;"><path d="M160.478,389.636c-1.191,.672-2.702,.254-3.375-.934h0c-.692-1.189-.289-2.711,.901-3.402l13.863-8.023,.006-.004c1.194-.684,2.718-.273,3.403,.918h0l.004,.006c.686,1.191,.274,2.711-.92,3.395l-13.847,8.023-.034,.02Z" style="fill:#fff;"></path></g><g style="opacity:.3;"><path d="M126.627,406.192h0l-.004-.006c-.685-1.191-.273-2.711,.92-3.395l13.847-8.023c1.195-.693,2.727-.291,3.425,.899h0c.692,1.197,.282,2.726-.917,3.418l-13.847,8.023c-1.199,.69-2.732,.281-3.425-.915Z" style="fill:#fff;"></path></g><g style="opacity:.3;"><path d="M175.272,406.262c-.689,1.189-2.214,1.596-3.406,.908l-13.863-8.023c-1.193-.697-1.595-2.226-.901-3.418h0c.693-1.188,2.219-1.59,3.409-.899l13.847,8.023,.006,.004c1.192,.688,1.599,2.209,.91,3.398h0l-.004,.006Z" style="fill:#fff;"></path></g><g style="opacity:.3;"><path d="M144.802,388.727c-.696,1.185-2.223,1.583-3.411,.889l-13.847-8.023-.006-.004c-1.192-.688-1.599-2.209-.91-3.398h0c.693-1.196,2.226-1.605,3.425-.915l13.847,8.023,.006,.004c1.192,.688,1.599,2.209,.91,3.398h0l-.015,.025Z" style="fill:#fff;"></path></g><path d="M150.96,388.06h0c2.318,0,4.197,1.875,4.197,4.188s-1.879,4.188-4.197,4.188-4.197-1.875-4.197-4.188,1.879-4.188,4.197-4.188Z" style="fill:#263238;"></path></g><g><ellipse cx="395.788" cy="392.251" rx="50.917" ry="50.801" style="fill:#263238;"></ellipse><g style="opacity:.3;"><path d="M398.282,366.719v15.966c0,1.374-1.116,2.487-2.493,2.487h-.016c-1.377,0-2.493-1.113-2.493-2.487v-15.966c0-1.374,1.116-2.487,2.493-2.487h.016c1.377,0,2.493,1.113,2.493,2.487Z" style="fill:#fff;"></path></g><g style="opacity:.3;"><path d="M398.282,401.811v15.966c0,1.374-1.116,2.487-2.493,2.487h-.016c-1.377,0-2.493-1.113-2.493-2.487v-15.966c0-1.374,1.116-2.487,2.493-2.487h.016c1.377,0,2.493,1.114,2.493,2.487Z" style="fill:#fff;"></path></g><g style="opacity:.3;"><path d="M405.308,389.636c-1.191,.672-2.702,.254-3.375-.934h0c-.692-1.189-.289-2.711,.901-3.402l13.863-8.023,.006-.004c1.194-.684,2.718-.273,3.403,.918h0l.004,.006c.686,1.191,.274,2.711-.92,3.395l-13.847,8.023-.034,.02Z" style="fill:#fff;"></path></g><g style="opacity:.3;"><path d="M371.457,406.192h0l-.004-.006c-.685-1.191-.273-2.711,.92-3.395l13.847-8.023c1.195-.693,2.727-.291,3.425,.899h0c.692,1.197,.282,2.726-.917,3.418l-13.847,8.023c-1.199,.69-2.732,.281-3.425-.915Z" style="fill:#fff;"></path></g><g style="opacity:.3;"><path d="M420.102,406.262c-.689,1.189-2.214,1.596-3.406,.908l-13.863-8.023c-1.193-.697-1.595-2.226-.901-3.418h0c.693-1.188,2.219-1.59,3.409-.899l13.847,8.023,.006,.004c1.192,.688,1.599,2.209,.91,3.398h0l-.004,.006Z" style="fill:#fff;"></path></g><g style="opacity:.3;"><path d="M389.631,388.727c-.696,1.185-2.223,1.583-3.411,.889l-13.847-8.023-.006-.004c-1.192-.688-1.599-2.209-.91-3.398h0c.693-1.196,2.226-1.605,3.425-.915l13.847,8.023,.006,.004c1.192,.688,1.599,2.209,.91,3.398h0l-.015,.025Z" style="fill:#fff;"></path></g><path d="M395.789,388.06h0c2.318,0,4.197,1.875,4.197,4.188s-1.879,4.188-4.197,4.188-4.197-1.875-4.197-4.188,1.879-4.188,4.197-4.188Z" style="fill:#263238;"></path></g><path d="M306.278,241.97s1.499-4.496,1.374-4.496,12.24-9.742,12.24-9.742c0,0,11.365,5.745,14.238,8.992,2.873,3.247,3.247,14.238,3.247,14.238,0,0-4.621,4.371-5.121,4.621-.5,.25-15.237,8.867-15.861,8.368-.624-.5-10.116-21.981-10.116-21.981Z" style="fill:#F99727;"></path><g style="opacity:.3;"><path d="M291.302,376.189c-13.28-.26-24.477-2.344-33.851-14.582-9.374-12.238,3.645-35.413,3.645-35.413,0,0-29.1-9.966-28.23-9.003,.87,.964-9.575,46.868,13.058,59.752,18.394,10.47,51.144,1.247,62.767-2.571-6.051,1.685-12.456,1.914-17.389,1.818Z"></path><polygon points="312.927 372.9 312.927 372.9 312.927 372.9 312.927 372.9"></polygon></g><path d="M89.581,357.275c-.478,.717-5.725,7.088,10.087,9.269,15.811,2.181,111.226,17.72,112.316,17.72s22.899-26.989,15.539-47.434c-7.361-20.446-39.529-28.897-56.703-27.807-17.174,1.091-50.706,2.453-81.238,48.252Z" style="fill:#F99727;"></path><path d="M206.428,392.741l-.839,19.73s102.667-.064,116.67-5.287c12.516-4.668,16.269-10.312,17.962-17.228h0c4.826,0,9.386-2.185,12.398-5.955,7.926-9.922,27.447-28.533,61.08-26.206,.979,.068,1.965,.074,2.943-.008,4.412-.372,17.053-1.542,16.351-2.712-.85-1.416-22.94-31.153-59.473-27.188,0,0,11.328-5.098,6.797-13.027-4.531-7.93-45.879-60.606-45.879-60.606,0,0-13.594,11.895-3.682,25.772,9.912,13.877,21.807,34.834,21.807,43.047s-5.169,52.022-27.188,68.536c-10.195,7.647-118.946,1.133-118.946,1.133Z" style="fill:#F99727;"></path><path d="M101.384,349.609s36.581-39.716,79.781-36.581c43.2,3.136-74.555,45.987-79.781,36.581Z" style="fill:#fff; opacity:.3;"></path><path d="M390.889,331.49s-4.08-11.051,6.291-16.322,11.901-5.101,11.901-5.101l13.942,26.523s-2.465,4.349-13.006,4.859c-10.541,.51-18.425-9.672-18.425-9.672" style="fill:#F99727;"></path><path d="M294.239,240.56l17.194,1.656,4.086-3.58s6.09,.432,7.206,1.71c1.116,1.278,1.862,4.898,1.862,4.898,0,0,1.111,3.048-1.806,4.082,0,0,.631,2.198-2.678,3.465,0,0-.582-8.677-3.994-7.879-3.412,.798-2.322,10.946-4.414,10.683-3.889-.488-3.757-3.096-3.757-3.096l-14.877-1.027,1.179-10.912Z" style="fill:#faac6d;"></path><circle cx="314.789" cy="250.057" r="5.98" style="fill:#263238;"></circle><path d="M227.522,336.829c-3.1-8.611-10.605-15.086-19.532-19.625,.256,.287,10.952,12.317,12.508,18.745,1.575,6.506-9.816,27.327-18.624,35.568-8.808,8.241-40.627,4.688-41.191,4.597h0c26.216,4.197,50.75,8.148,51.3,8.148,1.09,0,22.899-26.989,15.539-47.434Z" style="opacity:.3;"></path><path d="M373.52,327.887s-7.811,3.714-10.631,7.239-7.666,15.156-7.666,15.156c0,0,7.459-2.385,9.149-8.815,1.69-6.43,4.862-9.69,4.862-9.69l4.287-3.89Z" style="opacity:.3;"></path><path d="M390.161,327.887s16.903,5.217,28.011,12.679c0,0-11.589-14.497-28.011-12.679Z" style="opacity:.3;"></path><path d="M212.118,378.452c-.028,0-.057-.002-.086-.008-15.621-2.705-35.865-6.224-56.109-9.742s-40.488-7.037-56.109-9.743c-.272-.047-.454-.306-.407-.577s.306-.463,.578-.407c15.621,2.705,35.865,6.224,56.109,9.742s40.488,7.037,56.109,9.743c.272,.047,.454,.306,.407,.577-.042,.243-.253,.415-.492,.415Z" style="opacity:.3;"></path><path d="M259.849,326.267c-.054,0-.107-.009-.161-.026-.147-.051-4.267-1.368-9.967-3.192-18.073-5.782-55.681-17.815-58.143-18.695-.26-.093-.396-.379-.302-.639,.093-.261,.379-.394,.639-.303,2.446,.874,40.042,12.903,58.11,18.685,6.129,1.961,9.829,3.145,9.985,3.197,.262,.089,.401,.373,.312,.635-.071,.208-.266,.339-.474,.339Z"></path><path d="M352.664,370.437c-.107,0-.215-.034-.306-.104-.219-.169-.259-.483-.09-.701,13.137-16.967,36.909-25.426,57.812-20.579,.269,.062,.437,.331,.374,.601-.062,.269-.326,.438-.601,.374-20.532-4.766-43.888,3.549-56.794,20.216-.099,.128-.246,.194-.396,.194Z" style="opacity:.3;"></path><path d="M321.827,232.756c.545,.917,7.994,8.842,7.994,8.842l6.631,1.23s-.592-3.762-2.323-6.104c-1.731-2.342-11.537-7.519-11.537-7.519l-.765,3.55Z" style="fill:#fff; opacity:.5;"></path><path d="M368.096,315.324c-.119,0-.238-.042-.334-.128-1.612-1.447-23.185-27.76-30.846-45.803-.108-.254,.011-.548,.265-.655,.252-.109,.547,.01,.655,.265,7.607,17.917,28.995,44.015,30.594,45.449,.205,.185,.223,.5,.038,.706-.099,.11-.235,.166-.372,.166Z" style="opacity:.3;"></path></g><g><g><g><path d="M278.56,151.258c1.253,.324,2.285,1.385,2.573,2.646,.288,1.261-.18,2.666-1.167,3.502,.973,.062,1.516,1.302,1.208,2.228-.308,.926-1.164,1.551-2.017,2.024,.469,.265,.68,.856,.63,1.392-.05,.536-.317,1.028-.613,1.478-1.289,1.958-3.269,3.45-5.506,4.15,0,0,.154-15.505,.628-15.702s4.264-1.717,4.264-1.717Z" style="fill:#263238;"></path><path d="M257.554,189.321c.485-1.459,1.288-2.915,2.175-4.31l-2.546-2.178-8.377-11.891c.101,6.442-1.263,17.677-7.203,20.474l14.411,7.374c-2.124-2.366,.653-6.9,1.541-9.468Z" style="fill:#faac6d;"></path><path d="M257.375,189.887c-2.499-2.116-5.063-5.489-4.147-8.694,.395-1.348,.911-2.601,1.381-3.381l4.381,8.418c-.666,1.125-.969,1.892-1.615,3.657Z" style="opacity:.2;"></path><path d="M248.787,159.125c-.799,10.533-1.357,14.963,3.079,21.304,6.672,9.539,19.523,8.876,23.389-1.047,3.48-8.93,4.201-24.655-5.247-30.732-9.309-5.986-20.422-.059-21.221,10.474Z" style="fill:#faac6d;"></path><path d="M260.66,164.674c-.134,1.106,.308,2.107,.988,2.236,.68,.129,1.339-.663,1.473-1.769,.134-1.106-.308-2.107-.988-2.236-.68-.129-1.339,.663-1.473,1.769Z" style="fill:#263238;"></path><path d="M271.476,166.506c-.128,1.072,.318,2.046,.996,2.175,.678,.129,1.33-.636,1.458-1.708,.128-1.072-.318-2.046-.996-2.175-.678-.129-1.33,.636-1.458,1.708Z" style="fill:#263238;"></path><path d="M260.133,160.579c.13,.037,.27,.021,.389-.056,1.847-1.21,3.559-.387,3.579-.378,.254,.123,.549,.017,.656-.245,.106-.261-.015-.576-.271-.703-.089-.044-2.237-1.079-4.53,.424-.228,.15-.287,.473-.131,.722,.076,.12,.187,.2,.309,.235Z" style="fill:#263238;"></path><path d="M276.206,161.836c.11-.017,.21-.08,.275-.186,.134-.219,.069-.537-.145-.71-2.146-1.732-4.074-1.016-4.156-.983-.23,.089-.33,.375-.223,.639,.106,.264,.377,.406,.607,.319,.075-.029,1.58-.56,3.286,.818,.11,.089,.239,.122,.356,.104Z" style="fill:#263238;"></path><path d="M269.19,165.486s.968,4.156,2.391,6.886c.249,.477-.053,1.061-.582,1.16-1.36,.256-2.787-.424-2.787-.424l.979-7.622Z" style="fill:#e97f3f;"></path><path d="M261.735,162.885l2.476-.161s-1.601,1.556-2.476,.161Z" style="fill:#263238;"></path><path d="M272.569,164.775l2.476-.161s-.337,1.655-2.476,.161Z" style="fill:#263238;"></path><path d="M250.33,169.069s3.761,.084,2.648-4.474c0,0,4.466-1.55,2.889-6.944,0,0,4.364,.923,6.192-3.463,0,0,3.509,3.503,7.412,.593,0,0,5.762,4.909,8.092,.578,0,0,8.42-1.971,1.953-7.089,0,0,1.509-11.256-9.611-7.034,0,0-5.047-8.024-12.659-1.039,0,0-6.346-3.111-8.748,4.584,0,0-6.93-.727-7.729,9.045,0,0-5.714,3.073-.607,8.705,0,0-1.042,2.687,1.99,5.76,0,0,.662,3.915,3.275,4.746,0,0,1.836,5.45,3.274,4.962,1.437-.488-.052-6.472,1.629-8.931Z" style="fill:#263238;"></path><path d="M244.802,167.171c.866,2.334,2.632,4.006,4.38,4.771,2.629,1.152,4.792-3.024,4.318-5.933-.426-2.619-2.848-4.713-5.611-4.623-2.722,.088-4.079,3.116-3.088,5.785Z" style="fill:#faac6d;"></path><path d="M251.429,168.033h-.025c-.137-.015-.237-.138-.224-.275,.095-.933-.191-1.885-.784-2.613-.593-.727-1.467-1.2-2.4-1.297-.137-.014-.237-.137-.223-.274,.014-.137,.138-.242,.274-.223,1.063,.11,2.061,.649,2.736,1.479,.675,.829,1.001,1.915,.894,2.979-.014,.128-.122,.225-.249,.225Z" style="opacity:.2;"></path><path d="M267.191,174.786c-.897,.968-1.724,1.998-2.477,3.082l-.636-.301c-2.834-1.391-3.691-2.975-3.799-4.358-.023-.653,.105-1.303,.374-1.899,.143-.343,.335-.663,.569-.952,1.012,1.903,3.685,3.253,5.068,3.998,.601,.367,.901,.43,.901,.43Z" style="fill:#263238;"></path><path d="M266.225,174.278l-.754,.887c-2.625-1.323-4.371-2.597-4.807-3.824,.143-.342,.335-.663,.569-.951,1.069,1.661,3.629,3.204,4.993,3.888Z" style="fill:#fff;"></path><path d="M264.078,177.568c-2.834-1.391-3.691-2.975-3.799-4.358,1.085,.532,2.063,1.262,2.882,2.151,.531,.62,.852,1.393,.917,2.207Z" style="fill:#e8675b;"></path></g><path d="M237.835,159.791c.057,2.702,.479,5.397,1.324,7.964,1.28,3.89,3.716,9.195,7.596,9.812,9.917,1.578,8.908-6.352,9.259-8.03,.351-1.678-.014-15.352,2.976-16.031,2.99-.679,24.551,2.747,24.551,2.747,0,0,1.901-17.16-16.35-19.108-20.444-2.181-29.746,4.243-29.356,22.645Z" style="fill:#F99727;"></path><path d="M255.154,169.538c.455,.036,22.538,5.123,24.501,4.052,1.964-1.071,4.793-13.03,2.907-19.88-1.886-6.85-23.269-5.347-24.058-5.014-.79,.333-3.35,20.842-3.35,20.842Z" style="fill:#F99727; opacity:.2;"></path><path d="M237.942,155.408l18.686,4.56-.26,3.127-18.545-4.284c-.006-1.089,.03-2.219,.119-3.402Z" style="fill:#fff;"></path><path d="M237.853,160.389l18.416,4.555-.135,3.16-17.909-4.137c-.159-1.061-.356-2.42-.372-3.578Z" style="fill:#fff;"></path><path d="M241.602,148.972s.838-8.371,9.845-9.98c9.007-1.61,14.791-1.61,13.348,.966-1.443,2.576-11.251,2.576-13.484,4.185-2.233,1.61-7.311,8.156-9.709,4.829Z" style="fill:#fff; opacity:.2;"></path><path d="M276.773,149.868c-.158,1.291-2.462,2.072-5.145,1.743-2.683-.329-4.73-1.642-4.572-2.934,.158-1.291,2.462-2.072,5.145-1.743,2.683,.329,4.73,1.642,4.572,2.934Z" style="fill:#fff; opacity:.3;"></path></g><g><polygon points="293.699 384.351 304.003 380.974 301.312 353.526 288.673 358.148 293.699 384.351" style="fill:#faac6d;"></polygon><polygon points="292.12 376.115 288.673 358.149 301.312 353.527 303.281 373.608 292.12 376.115" style="opacity:.2;"></polygon><path d="M305.544,378.047l-12.732,3.537c-.427,.119-.715,.531-.694,.991l.482,10.264c.05,1.065,1.057,1.806,2.038,1.514,4.077-1.211,7.001-2.293,12.16-3.726,3.174-.882,12.837-3.197,17.221-4.415,4.288-1.191,3.768-5.902,1.865-5.814-8.529,.398-15.259-.452-18.47-2.154-.579-.307-1.247-.373-1.872-.199Z" style="fill:#263238;"></path><path d="M305.544,378.047l-12.732,3.537c-.427,.119-.715,.531-.694,.991l.482,10.264c.05,1.065,1.057,1.806,2.038,1.514,4.077-1.211,7.001-2.293,12.16-3.726,3.174-.882,12.837-3.197,17.221-4.415,4.288-1.191,3.768-5.902,1.865-5.814-8.529,.398-15.259-.452-18.47-2.154-.579-.307-1.247-.373-1.872-.199Z" style="opacity:.3;"></path></g><g><path d="M200.857,258.629s-15.187,28.265,12.286,38.9c20.7,8.013,61.302,17.865,61.302,17.865l12.181,64.706,23.524-5.154s-6.869-43.311-11.117-71.733c-1.361-9.107-5.08-9.985-6.984-11.279-6.116-4.155-51.826-20.998-51.826-20.998l1.054-3.846-40.42-8.462Z" style="fill:#F99727;"></path><path d="M200.857,258.629s-15.187,28.265,12.286,38.9c20.7,8.013,61.302,17.865,61.302,17.865l12.181,64.706,23.524-5.154s-6.869-43.311-11.117-71.733c-1.361-9.107-5.08-9.985-6.984-11.279-6.116-4.155-51.826-20.998-51.826-20.998l1.054-3.846-40.42-8.462Z" style="opacity:.3;"></path><polygon points="274.446 315.394 280.409 310.689 275.092 318.826 274.446 315.394" style="opacity:.3;"></polygon></g><g><path d="M246.213,184.241c-.719,.123-12.466,1.486-20.298,13.41s-25.592,51.105-25.442,52.842c.618,7.132-8.601,11.164,13.095,15.492,21.696,4.329,27.709,3.031,27.709,3.031,0,0,4.462-2.191,5.696-9.011,.148-.817,11.485-26.402,14.01-38.142,2.524-11.74-3.614-31.976-3.614-31.976l-1.355,2.955-9.8-8.602Z" style="fill:#263238;"></path><path d="M253.401,243.618s-21.377-34.351-22.58-32.887c-.614,.747,2.4,12.346,7.218,23.261,.185,.419,3.427-.925,3.564-.49,3.439,10.934,7.539,20.464,7.539,20.464,.742-1.794,4.26-10.347,4.26-10.347Z" style="opacity:.3;"></path><polygon points="244.683 184.865 247.57 182.154 258.989 189.225 257.099 195.246 244.683 184.865" style="fill:#263238;"></polygon></g><path d="M246.885,195.018c-1.247-1.667-11.842-1.31-14.595,6.163-2.753,7.473,24.281,50.739,31.027,53.231,9.2,3.398,44.62-1.913,44.882-2.269l3.396-10.316-39.207-3.191c-1.39,.229-20.428-36.834-25.504-43.618Z" style="fill:#faac6d;"></path><g><path d="M239.082,232.064l23.097-11.239s-10.33-30.842-19.318-29.764-14.021,8.808-13.122,14.201c.899,5.393,9.343,26.802,9.343,26.802Z" style="fill:#263238;"></path><path d="M261.593,220.919c-.153,0-.297-.095-.353-.247-.062-.171-6.3-17.227-12.088-24.998-5.604-7.525-15.613-.478-15.713-.405-.168,.121-.402,.082-.523-.086-.121-.168-.082-.403,.086-.523,.106-.077,10.712-7.542,16.752,.566,5.854,7.859,12.129,25.017,12.191,25.189,.07,.194-.029,.41-.225,.48-.042,.015-.085,.022-.128,.022Z" style="opacity:.3;"></path><path d="M237.823,228.107c-.146,0-.285-.086-.346-.229-.08-.191,.009-.411,.2-.492l22.841-9.639c.188-.08,.411,.009,.491,.2,.08,.191-.009,.411-.2,.492l-22.84,9.639c-.048,.02-.097,.029-.146,.029Z" style="opacity:.3;"></path></g></g></g></g></svg>
